<svg xmlns="http://www.w3.org/2000/svg" viewBox="0 0 104 16"><style>.st0{fill:#f9f0da}</style><path class="st0" d="M81.296 0h-.826a51.28 51.28 0 0 0-5.134 2.513c-6.707 3.775-14.793 5.77-23.383 5.77-8.591 0-16.677-1.995-23.386-5.77A51.243 51.243 0 0 0 23.434 0H0v3.122c8.585.004 16.664 1.998 23.364 5.769 8.246 4.64 18.132 7.093 28.589 7.093 10.454 0 20.34-2.453 28.587-7.093 6.703-3.774 14.788-5.77 23.383-5.77.026 0 .051.003.077.003V0H81.296zM28.492 2.652c3.364 1.892 7.075 3.34 11.021 4.313-3.946-.974-7.657-2.42-11.021-4.313zm40.329 10.9zM0 11.562V16h23.472C16.38 12.987 8.374 11.408 0 11.405v.157zM80.432 16H104v-4.594l-.077-.001c-8.38 0-16.393 1.58-23.491 4.595z"/></svg>
